<?xml version="1.0" encoding="UTF-8"?>
<svg width="800px" height="600px" viewBox="0 0 800 600" version="1.1" xmlns="http://www.w3.org/2000/svg" xmlns:xlink="http://www.w3.org/1999/xlink">
    <!-- Generator: Sketch 52 (66869) - http://www.bohemiancoding.com/sketch -->
    <title>Artboard</title>
    <desc>Created with Sketch.</desc>
    <g id="Artboard" stroke="none" stroke-width="1" fill="none" fill-rule="evenodd">
        <rect fill="#5F27CD" x="0" y="0" width="800" height="600"></rect>
        <g id="tabler" transform="translate(67.000000, 244.000000)">
            <path d="M110.562154,24.8535 C107.800715,13.811976 99.1609602,5.1904951 88.0953846,2.43425 C67.4124684,-0.810676795 46.3483931,-0.810676795 25.6654769,2.43425 C14.5971961,5.18823765 5.95432422,13.8101369 3.19169231,24.8535 C-0.0605960504,45.4910409 -0.0605960504,66.5089591 3.19169231,87.1465 C5.9537278,98.1889435 14.5950411,106.810633 25.6619692,109.56575 C46.3448854,112.810677 67.4089608,112.810677 88.0918769,109.56575 C99.1588051,106.810633 107.800118,98.1889435 110.562154,87.1465 C113.810768,66.5086728 113.810768,45.4913272 110.562154,24.8535 Z" id="Path" fill="#33156E"></path>
            <path d="M55.6965846,60.07575 C50.7122312,67.8299373 44.0700857,74.3875954 36.2464308,79.2785 C33.6875284,80.8271369 30.4983842,80.9090208 27.8630462,79.49375 C25.2480328,78.1016813 23.5975541,75.4018244 23.5538462,72.44475 C23.5308678,69.4878971 25.1212707,66.7525297 27.7052,65.30475 C31.762346,62.8086658 35.3714878,59.651677 38.3826154,55.965 C35.2957344,52.3733805 31.6984413,49.2521081 27.7052,46.7005 C23.7450154,44.3905 22.4471692,39.3715 24.8060923,35.49175 C27.1650154,31.61375 32.288,30.3415 36.2464308,32.65325 C44.0546903,37.5007612 50.6957208,44.0065295 55.6965846,51.70725 C57.2715015,54.2754292 57.2715015,57.5075707 55.6965846,60.07575 Z M83.5353846,77 L63.5415385,77 C59.8391692,77 56.8769231,75.215 56.8769231,71.75 C56.8769231,68.285 59.876,66.5 63.5415385,66.5 L83.5353846,66.5 C87.2377538,66.5 90.2,68.285 90.2,71.75 C90.2,75.215 87.2009231,77 83.5353846,77 Z" id="Shape" fill="#FFFFFF" fill-rule="nonzero"></path>
        </g>
        <text id="Hackathon-Dashboard" fill="#FFFFFF" font-family="Dosis-Regular, Dosis" font-size="67" font-weight="normal" letter-spacing="-1.876">
            <tspan x="190" y="326">Hackathon</tspan>
            <tspan x="446.007" y="326" font-family="Dosis-SemiBold, Dosis" font-weight="500"> </tspan>
            <tspan x="457.531" y="326" font-family="Dosis-Bold, Dosis" font-weight="bold">Dashboard</tspan>
        </text>
    </g>
</svg>